<svg width="24" height="24" viewBox="0 0 24 24" fill="none" xmlns="http://www.w3.org/2000/svg">
<path fill-rule="evenodd" clip-rule="evenodd" d="M3.70716 12.8229C3.3078 12.7679 3 12.4205 3 12.0001C3 11.5415 3.36631 11.1698 3.81818 11.1698H18.1999L13.0047 5.91866L12.9253 5.8257C12.687 5.50114 12.7124 5.0398 13.0023 4.74441C13.3212 4.41948 13.8392 4.41839 14.1594 4.74198L20.7477 11.4004C20.787 11.4386 20.8224 11.4806 20.8536 11.526C21.0766 11.8502 21.0452 12.3001 20.7593 12.5889L14.1593 19.2581L14.0674 19.3383C13.7466 19.5787 13.2921 19.551 13.0023 19.2555C12.6834 18.9306 12.6845 18.4049 13.0047 18.0813L18.2012 12.8304L3.81818 12.8304L3.70716 12.8229Z" fill="#E3E6EC"/>
</svg>
