<svg width="24" height="24" viewBox="0 0 24 24" fill="none" xmlns="http://www.w3.org/2000/svg">
<path fill-rule="evenodd" clip-rule="evenodd" d="M20.2928 11.1774C20.6922 11.2324 21 11.5798 21 12.0001C21 12.4587 20.6337 12.8305 20.1818 12.8305H5.80007L10.9953 18.0816L11.0747 18.1745C11.313 18.4991 11.2876 18.9604 10.9977 19.2558C10.6788 19.5808 10.1608 19.5819 9.84062 19.2583L3.25226 12.5998C3.21304 12.5617 3.17756 12.5196 3.14642 12.4743C2.92336 12.15 2.95478 11.7002 3.24067 11.4113L9.84067 4.74218L9.9326 4.66198C10.2534 4.4215 10.7079 4.44929 10.9977 4.74471C11.3166 5.06966 11.3155 5.59539 10.9953 5.91895L5.79877 11.1698L20.1818 11.1698L20.2928 11.1774Z" fill="#E3E6EC"/>
</svg>
