<svg width="314" height="157" viewBox="0 0 314 157" fill="none" xmlns="http://www.w3.org/2000/svg">
<rect width="314" height="157" fill="#0871D2" fill-opacity="0.14"/>
<path d="M148.569 95.7645C148.753 95.333 148.937 94.8889 149.133 94.4575C150.199 92.0718 151.265 89.6862 152.344 87.3006C153.275 85.2448 154.194 83.1764 155.125 81.1207C156.13 78.9001 157.123 76.6794 158.116 74.4587C158.643 73.2786 159.182 72.0985 159.709 70.9183C159.77 70.7788 159.856 70.7534 159.991 70.7534C162.797 70.7534 165.616 70.7534 168.422 70.7534C170.359 70.7534 172.099 69.2053 172.405 67.213C172.748 64.8781 171.339 62.7717 169.109 62.3148C168.839 62.2641 168.557 62.2514 168.275 62.2514C159.831 62.2514 151.375 62.2514 142.932 62.2514C139.218 62.2514 135.934 59.4216 135.235 55.6274C135.137 55.1072 135.101 54.5742 135.027 54.0032C135.15 54.0032 135.223 54.0032 135.297 54.0032C146.351 54.0032 157.393 53.9905 168.447 54.0159C171.56 54.0159 174.28 55.1706 176.572 57.3659C178.57 59.282 179.795 61.6423 180.249 64.4086C180.8 67.8475 180.077 70.9945 178.128 73.8369C178.104 73.875 178.079 73.9131 178.043 73.9638C178.288 74.2176 178.533 74.4587 178.753 74.7252C181.033 77.3012 182.124 80.334 181.989 83.8109C181.768 89.5847 177.687 94.4575 172.197 95.5361C171.462 95.6757 170.702 95.7518 169.942 95.7518C162.883 95.7645 155.836 95.7645 148.777 95.7645C148.716 95.7518 148.642 95.7518 148.569 95.7645ZM161.045 87.5036C161.167 87.5036 161.241 87.5036 161.327 87.5036C164.158 87.5036 166.988 87.5036 169.819 87.5036C170.114 87.5036 170.42 87.4909 170.714 87.4401C172.945 86.9833 174.342 84.9022 174.011 82.5673C173.729 80.6005 171.964 79.0016 170.077 79.0016C168.422 79.0016 166.768 79.0143 165.113 79.0016C164.917 79.0016 164.844 79.065 164.77 79.2427C163.753 81.5141 162.736 83.7729 161.719 86.0316C161.486 86.5011 161.278 86.9833 161.045 87.5036Z" fill="#2D97F8"/>
<path d="M139.966 95.7645C139.463 95.7645 138.973 95.7645 138.471 95.7518C136.4 95.7518 134.328 95.7518 132.257 95.7518C132.184 95.7518 132.11 95.7518 132 95.7518C132.135 95.4472 132.257 95.1554 132.38 94.8762C134.181 90.8409 135.983 86.8183 137.772 82.7831C139.157 79.6868 140.53 76.5906 141.914 73.4943C142.294 72.6441 142.674 71.7812 143.054 70.931C143.103 70.8295 143.14 70.7534 143.287 70.7534C145.848 70.7534 148.41 70.7534 150.971 70.7534C151.008 70.7534 151.032 70.7534 151.106 70.7661C150.922 71.1848 150.738 71.5909 150.554 71.9969C149.378 74.6364 148.201 77.2885 147.013 79.9279C145.959 82.2882 144.905 84.6357 143.863 86.996C142.809 89.3563 141.755 91.7165 140.701 94.0895C140.468 94.6478 140.211 95.2061 139.966 95.7645Z" fill="#0871D2"/>
<path d="M148.569 95.7645C148.214 96.5385 147.87 97.2999 147.527 98.074C146.657 100.003 145.799 101.944 144.929 103.873C144.905 103.937 144.807 104 144.745 104C141.963 104 139.182 104 136.4 104C136.387 104 136.375 104 136.326 103.987C136.473 103.657 136.608 103.34 136.755 103.023C137.821 100.65 138.887 98.277 139.941 95.9041C139.966 95.866 139.966 95.8152 139.978 95.7645L139.966 95.7772C140.027 95.7772 140.088 95.7645 140.15 95.7645C142.883 95.7645 145.616 95.7645 148.348 95.7645C148.422 95.7518 148.495 95.7645 148.569 95.7645Z" fill="#0871D2"/>
</svg>
