<svg width="48" height="48" viewBox="0 0 48 48" fill="none" xmlns="http://www.w3.org/2000/svg">
<g clip-path="url(#clip0_2_13)">
<path d="M15.9062 40.0939C16.0827 39.6797 16.2591 39.2533 16.4474 38.8392C17.4709 36.5489 18.4945 34.2587 19.5298 31.9685C20.4239 29.9951 21.3063 28.0094 22.2004 26.0359C23.1652 23.9041 24.1181 21.7722 25.0711 19.6404C25.577 18.5075 26.0946 17.3745 26.6005 16.2416C26.6594 16.1076 26.7417 16.0832 26.8711 16.0832C29.5653 16.0832 32.2713 16.0832 34.9654 16.0832C36.8243 16.0832 38.4949 14.597 38.789 12.6845C39.1185 10.443 37.7655 8.42078 35.6243 7.98223C35.3654 7.93351 35.0949 7.92132 34.8243 7.92132C26.7182 7.92132 18.6004 7.92132 10.4943 7.92132C6.9295 7.92132 3.77649 5.20474 3.10589 1.56234C3.01177 1.06287 2.97647 0.551234 2.90588 0.00304512C3.02353 0.00304512 3.09412 0.00304512 3.16471 0.00304512C13.7767 0.00304512 24.377 -0.0091361 34.989 0.0152278C37.9773 0.0152278 40.5891 1.12379 42.7891 3.23127C44.7068 5.07074 45.8833 7.33659 46.3186 9.99226C46.8481 13.2936 46.1539 16.3147 44.2833 19.0435C44.2598 19.08 44.2362 19.1166 44.2009 19.1653C44.4362 19.4089 44.6715 19.6404 44.8833 19.8962C47.0716 22.3691 48.1187 25.2806 47.9893 28.6185C47.7775 34.1613 43.8598 38.8392 38.589 39.8746C37.8831 40.0086 37.1537 40.0817 36.4243 40.0817C29.6477 40.0939 22.8828 40.0939 16.1062 40.0939C16.0474 40.0817 15.9768 40.0817 15.9062 40.0939ZM27.8829 32.1634C28.0006 32.1634 28.0712 32.1634 28.1535 32.1634C30.8712 32.1634 33.5889 32.1634 36.3066 32.1634C36.589 32.1634 36.8831 32.1513 37.1655 32.1025C39.3067 31.664 40.6479 29.6661 40.3303 27.4247C40.0597 25.5364 38.3655 24.0015 36.5537 24.0015C34.9654 24.0015 33.3772 24.0137 31.7889 24.0015C31.6006 24.0015 31.5301 24.0624 31.4595 24.233C30.483 26.4136 29.5065 28.5819 28.53 30.7503C28.3065 31.2011 28.1065 31.664 27.8829 32.1634Z" fill="#2D97F8"/>
<path d="M7.64723 40.0939C7.16487 40.0939 6.69427 40.0939 6.2119 40.0817C4.22362 40.0817 2.23534 40.0817 0.247062 40.0817C0.176472 40.0817 0.105885 40.0817 0 40.0817C0.129415 39.7893 0.247062 39.5091 0.364711 39.2411C2.09416 35.3673 3.82361 31.5056 5.5413 27.6317C6.87074 24.6593 8.18842 21.6869 9.51786 18.7145C9.88257 17.8983 10.2473 17.07 10.612 16.2538C10.6591 16.1563 10.6944 16.0832 10.8355 16.0832C13.2944 16.0832 15.7533 16.0832 18.2122 16.0832C18.2475 16.0832 18.271 16.0832 18.3416 16.0954C18.1651 16.4974 17.9886 16.8872 17.8122 17.2771C16.6827 19.8109 15.5533 22.3569 14.4121 24.8908C13.4003 27.1566 12.3885 29.4103 11.3885 31.6761C10.3767 33.942 9.36492 36.2078 8.35313 38.4859C8.12959 39.0219 7.88253 39.5579 7.64723 40.0939Z" fill="#0871D2"/>
<path d="M15.9063 40.0939C15.5651 40.837 15.2357 41.5679 14.9063 42.311C14.0709 44.1627 13.2474 46.0265 12.4121 47.8782C12.3886 47.9391 12.2944 48 12.2356 48C9.56496 48 6.89431 48 4.22366 48C4.2119 48 4.20014 48 4.15308 47.9878C4.29426 47.6711 4.42367 47.3666 4.56485 47.062C5.5884 44.784 6.61195 42.5059 7.62374 40.2279C7.64727 40.1914 7.64727 40.1426 7.65904 40.0939L7.64727 40.1061C7.7061 40.1061 7.76492 40.0939 7.82375 40.0939C10.4473 40.0939 13.0709 40.0939 15.6945 40.0939C15.7651 40.0817 15.8357 40.0939 15.9063 40.0939Z" fill="#0871D2"/>
</g>
<defs>
<clipPath id="clip0_2_13">
<rect width="48" height="48" fill="white"/>
</clipPath>
</defs>
</svg>
